<svg width="11" height="16" viewBox="0 0 11 16" fill="none" xmlns="http://www.w3.org/2000/svg">
<path fill-rule="evenodd" clip-rule="evenodd" d="M2 4V10.5C2 12.433 3.567 14 5.5 14C7.433 14 9 12.433 9 10.5V3H11V10.5C11 13.5376 8.53757 16 5.5 16C2.46243 16 0 13.5376 0 10.5V4C0 1.79086 1.79086 0 4 0C6.20914 0 8 1.79086 8 4V10.5C8 11.8807 6.88071 13 5.5 13C4.11929 13 3 11.8807 3 10.5V4H5V10.5C5 10.7761 5.22386 11 5.5 11C5.77614 11 6 10.7761 6 10.5V4C6 2.89543 5.10457 2 4 2C2.89543 2 2 2.89543 2 4Z" fill="#478DF8"/>
</svg>
