<svg width="238" height="120" viewBox="0 0 238 120" fill="none" xmlns="http://www.w3.org/2000/svg">
<rect width="238" height="120" fill="url(#paint0_linear_5_13)"/>
<path d="M108.4 67V53H111.66L117.46 62.52H115.74L121.38 53H124.64L124.68 67H121.04L121 58.54H121.62L117.4 65.62H115.64L111.3 58.54H112.06V67H108.4ZM127.482 67V53H131.442V67H127.482ZM137.939 59.14H144.399V62.2H137.939V59.14ZM138.219 67H134.259V53H145.239V56.06H138.219V67ZM154.034 67.28C152.914 67.28 151.881 67.1 150.934 66.74C149.988 66.38 149.161 65.8733 148.454 65.22C147.761 64.5533 147.221 63.78 146.834 62.9C146.448 62.02 146.254 61.0533 146.254 60C146.254 58.9467 146.448 57.98 146.834 57.1C147.221 56.22 147.761 55.4533 148.454 54.8C149.161 54.1333 149.988 53.62 150.934 53.26C151.881 52.9 152.914 52.72 154.034 52.72C155.168 52.72 156.201 52.9 157.134 53.26C158.081 53.62 158.901 54.1333 159.594 54.8C160.288 55.4533 160.828 56.22 161.214 57.1C161.614 57.98 161.814 58.9467 161.814 60C161.814 61.0533 161.614 62.0267 161.214 62.92C160.828 63.8 160.288 64.5667 159.594 65.22C158.901 65.8733 158.081 66.38 157.134 66.74C156.201 67.1 155.168 67.28 154.034 67.28ZM154.034 64C154.568 64 155.061 63.9067 155.514 63.72C155.981 63.5333 156.381 63.2667 156.714 62.92C157.061 62.56 157.328 62.1333 157.514 61.64C157.714 61.1467 157.814 60.6 157.814 60C157.814 59.3867 157.714 58.84 157.514 58.36C157.328 57.8667 157.061 57.4467 156.714 57.1C156.381 56.74 155.981 56.4667 155.514 56.28C155.061 56.0933 154.568 56 154.034 56C153.501 56 153.001 56.0933 152.534 56.28C152.081 56.4667 151.681 56.74 151.334 57.1C151.001 57.4467 150.734 57.8667 150.534 58.36C150.348 58.84 150.254 59.3867 150.254 60C150.254 60.6 150.348 61.1467 150.534 61.64C150.734 62.1333 151.001 62.56 151.334 62.92C151.681 63.2667 152.081 63.5333 152.534 63.72C153.001 63.9067 153.501 64 154.034 64ZM163.888 67V53H170.288C171.568 53 172.668 53.2067 173.588 53.62C174.522 54.0333 175.242 54.6333 175.748 55.42C176.255 56.1933 176.508 57.1133 176.508 58.18C176.508 59.2333 176.255 60.1467 175.748 60.92C175.242 61.68 174.522 62.2667 173.588 62.68C172.668 63.08 171.568 63.28 170.288 63.28H166.088L167.848 61.62V67H163.888ZM172.548 67L169.068 61.9H173.288L176.788 67H172.548ZM167.848 62.04L166.088 60.22H170.048C170.875 60.22 171.488 60.04 171.888 59.68C172.302 59.32 172.508 58.82 172.508 58.18C172.508 57.5267 172.302 57.02 171.888 56.66C171.488 56.3 170.875 56.12 170.048 56.12H166.088L167.848 54.3V62.04ZM181.478 67V56.14H177.178V53H189.718V56.14H185.438V67H181.478Z" fill="white"/>
<mask id="mask0_5_13" style="mask-type:luminance" maskUnits="userSpaceOnUse" x="51" y="40" width="44" height="40">
<path d="M95 40H51V80H95V40Z" fill="white"/>
</mask>
<g mask="url(#mask0_5_13)">
<path d="M54.4662 40.5725V46.0823L51 45.3668L54.4662 40.5725Z" fill="white"/>
<path d="M55.3149 40L66.8455 47.9428V71.4132L55.3149 63.3274V40Z" fill="white"/>
<path d="M68.5434 40.5725V46.0823L65.0771 45.3668L68.5434 40.5725Z" fill="white"/>
<path d="M69.3923 40L80.9229 47.9427V76.4222L69.3923 68.3363V40Z" fill="white"/>
<path d="M82.6208 40.5725V46.0823L79.1545 45.3668L82.6208 40.5725Z" fill="white"/>
<path d="M83.4695 40L95 47.9428V80L83.4695 71.9141V40Z" fill="white"/>
</g>
<defs>
<linearGradient id="paint0_linear_5_13" x1="81" y1="47" x2="238" y2="120" gradientUnits="userSpaceOnUse">
<stop stop-color="#5A6EF2"/>
<stop offset="1" stop-color="#6295F1"/>
</linearGradient>
</defs>
</svg>
